<?xml version="1.0" encoding="utf-8"?>
<!-- Generator: Adobe Illustrator 25.2.1, SVG Export Plug-In . SVG Version: 6.00 Build 0)  -->
<svg version="1.1" id="Слой_1" xmlns="http://www.w3.org/2000/svg" xmlns:xlink="http://www.w3.org/1999/xlink" x="0px" y="0px"
	 viewBox="0 0 38.7 49" style="enable-background:new 0 0 38.7 49;" xml:space="preserve">
<style type="text/css">
	.st0{fill:#FBBE07;}
</style>
<path class="st0" d="M34.7,10.4L34.9,8L33,6.2l-4.2,4.1h-2.6L23,13.1l-0.2,5.1l-3.5,1.2l-3.6-1.2l-0.2-5.1l-3.1-2.8H9.8l-4-4.1h6.1
	l1.8-0.1l5.6,3.9l5.6-4l1.8,0.2h6.3h-2.5L24,0h-9.4L8.3,6.2H5.8L3.9,7.9l0.2,2.4L0,14.6l0.1,14.9l18,17.2l1.4-1.9l1.3,4l17.9-19.3
	l0.1-14.9L34.7,10.4z M10.1,12.4l4.2,4l-2.5,1.8L6,12.4L10.1,12.4z M20.7,34.8l-1.3-1.1L18,35.9l-3.5-4.7l3.1-2.9H21l3.1,2.9
	L20.7,34.8z M22.8,28.4l-3.5-3.1l-3.5,3l-4.6-4.6c0,0,3.8-3.7,3.8-3.7c1.4,0.3,3.5,1.7,4.2,2.2c0.7-0.5,2.9-1.9,4.4-2.2
	c0,0,3.7,3.7,3.7,3.7L22.8,28.4z M26.8,18.2l-2.5-1.8l4.2-4h4L26.8,18.2z"/>
</svg>
