<svg width="272" height="272" viewBox="0 0 272 272" fill="none" xmlns="http://www.w3.org/2000/svg">
<path d="M0.0859375 135.758C0.0859375 76.1025 0.0859375 46.2746 16.6791 26.2791C19.5233 22.8517 22.6794 19.6957 26.1067 16.8515C46.1022 0.258301 75.9301 0.258301 135.586 0.258301C195.242 0.258301 225.07 0.258301 245.065 16.8515C248.492 19.6957 251.649 22.8517 254.493 26.2791C271.086 46.2746 271.086 76.1025 271.086 135.758C271.086 195.414 271.086 225.242 254.493 245.238C251.649 248.665 248.492 251.821 245.065 254.665C225.07 271.258 195.242 271.258 135.586 271.258C75.9301 271.258 46.1022 271.258 26.1067 254.665C22.6794 251.821 19.5233 248.665 16.6791 245.238C0.0859375 225.242 0.0859375 195.414 0.0859375 135.758Z" fill="#FFE033"/>
<path d="M207.579 189.657C191.297 204.031 170.053 212.701 146.875 212.701C98.2529 212.701 61.8196 175.044 61.8196 132C61.8196 91.5247 94.0936 58.4743 134.107 58.4743C171.87 58.4743 199.116 87.7524 199.116 119.453C199.116 149.168 175.674 173.27 146.875 173.27C120.524 173.27 101.925 153.311 101.925 132C101.925 112.874 116.72 97.9045 134.12 97.9045C149.52 97.9045 159.023 109.129 159.023 119.453C159.023 128.414 152.719 133.827 146.875 133.827C144.808 133.827 144.018 133.39 143.189 132.874C145.071 130.452 146.006 127.302 145.532 124.019C144.597 117.679 138.727 113.298 132.422 114.238C127.013 115.045 123.577 118.725 121.879 121.451C119.958 124.509 118.931 128.189 118.931 132C118.931 147.209 133.107 157.043 146.875 157.043C166.987 157.056 182.11 139.492 182.11 119.453C182.11 94.9264 160.853 74.6885 134.12 74.6885C103.07 74.6885 78.8385 100.975 78.8385 132C78.8385 167.155 108.809 196.473 146.888 196.473C188.981 196.473 222.216 161.424 222.216 119.439C222.216 74.3046 184.005 35.2583 134.12 35.2583C81.0498 35.2583 38.7461 79.0166 38.7461 132C38.7461 188.571 86.2357 235.917 146.888 235.917C175.897 235.917 202.512 225.023 222.821 207.102L207.579 189.657ZM141.991 131.749C141.991 131.723 141.978 131.736 141.991 131.749Z" fill="black"/>
</svg>
