<?xml version="1.0" standalone="no"?>
<!DOCTYPE svg PUBLIC "-//W3C//DTD SVG 20010904//EN"
 "http://www.w3.org/TR/2001/REC-SVG-20010904/DTD/svg10.dtd">
<svg version="1.0" xmlns="http://www.w3.org/2000/svg"
 width="250.000000pt" height="250.000000pt" viewBox="0 0 250.000000 250.000000"
 preserveAspectRatio="xMidYMid meet">
<metadata>
Created by potrace 1.14, written by Peter Selinger 2001-2017
</metadata>
<g transform="translate(0.000000,250.000000) scale(0.100000,-0.100000)"
fill="#000000" stroke="none">
<path d="M939 2325 c-2 -2 -24 -6 -49 -10 -355 -50 -689 -326 -820 -677 -44
-120 -62 -219 -65 -365 -2 -78 1 -159 5 -180 5 -21 11 -51 13 -68 10 -67 49
-176 96 -267 155 -305 435 -510 781 -573 79 -14 276 -14 350 0 313 61 579 261
738 556 45 85 85 189 101 269 6 30 14 66 17 80 11 53 10 239 -2 320 -7 47 -11
86 -10 88 2 1 92 3 200 3 108 1 196 3 196 4 0 2 -33 28 -74 58 l-74 53 55 40
c72 51 98 74 87 75 -5 0 -115 0 -245 0 l-237 1 -12 26 c-28 62 -124 193 -191
261 -155 156 -325 247 -554 297 -33 7 -301 15 -306 9z m-290 -940 c30 -3 62
-8 72 -10 10 -2 44 -6 76 -10 32 -3 73 -8 92 -11 82 -13 284 -10 411 7 234 31
250 32 495 33 l239 0 6 -30 c8 -36 5 -183 -4 -244 -18 -115 -62 -247 -84 -252
-9 -2 -161 -3 -337 -2 -310 2 -322 2 -395 26 -108 35 -189 36 -302 2 -90 -26
-96 -27 -407 -28 -174 -1 -324 2 -333 6 -15 7 -50 98 -64 163 -2 11 -7 31 -10
45 -9 37 -17 266 -11 292 l6 23 248 -1 c136 -1 272 -5 302 -9z"/>
<path d="M623 1258 c-46 -15 -84 -60 -98 -115 -44 -173 184 -274 285 -126 19
29 25 49 25 93 -1 69 -29 114 -89 141 -45 20 -75 22 -123 7z"/>
<path d="M1355 1247 c-81 -45 -107 -143 -60 -224 78 -133 278 -88 293 66 12
131 -121 221 -233 158z"/>
</g>
</svg>
