<svg width="0" height="0" style="position:absolute"><symbol viewBox="0 0 14 8" id="arrow-down" xmlns="http://www.w3.org/2000/svg"><path d="M1 1l6 6 6-6"/></symbol><symbol viewBox="0 0 8 14" id="icon-arrow" xmlns="http://www.w3.org/2000/svg"><path d="M1 13l6-6-6-6"/></symbol><symbol viewBox="0 0 12 14" id="icon-back" xmlns="http://www.w3.org/2000/svg"><path d="M11 6H3.41l3.3-3.29a1.004 1.004 0 00-1.42-1.42l-5 5a1 1 0 00-.21.33 1 1 0 000 .76 1 1 0 00.21.33l5 5a1 1 0 001.639-.325 1 1 0 00-.22-1.095L3.41 8H11a1 1 0 100-2z"/></symbol><symbol viewBox="0 0 23 17" id="icon-check" xmlns="http://www.w3.org/2000/svg"><path d="M22.547.456l-.002-.002a1.545 1.545 0 00-2.187 0L8.15 12.676 2.64 7.159A1.547 1.547 0 10.457 9.353L8.15 17 22.545 2.647a1.549 1.549 0 00.002-2.191z"/></symbol><symbol viewBox="0 0 24 24" id="icon-login" xmlns="http://www.w3.org/2000/svg"><path d="M20 21v-2a4 4 0 00-4-4H8a4 4 0 00-4 4v2m8-10a4 4 0 100-8 4 4 0 000 8z"/></symbol><symbol viewBox="0 0 24 24" id="icon-logout" xmlns="http://www.w3.org/2000/svg"><path d="M16 17l5-5-5-5m5 5H9m0 9H5a2 2 0 01-2-2V5a2 2 0 012-2h4"/></symbol></svg>