<svg width="0" height="0" class="hidden">
  <symbol fill="none" xmlns="http://www.w3.org/2000/svg" viewBox="0 0 12 14" id="arrow-back">
    <path d="M10.9999 6.00019H3.4099L6.7099 2.71019C6.8982 2.52188 7.00399 2.26649 7.00399 2.00019C7.00399 1.73388 6.8982 1.47849 6.7099 1.29019C6.52159 1.10188 6.2662 0.996094 5.9999 0.996094C5.73359 0.996094 5.4782 1.10188 5.2899 1.29019L0.289896 6.29019C0.198856 6.38529 0.127491 6.49743 0.0798963 6.62019C-0.0201217 6.86365 -0.0201217 7.13672 0.0798963 7.38019C0.127491 7.50294 0.198856 7.61508 0.289896 7.71019L5.2899 12.7102C5.38286 12.8039 5.49346 12.8783 5.61532 12.9291C5.73718 12.9798 5.86788 13.006 5.9999 13.006C6.13191 13.006 6.26261 12.9798 6.38447 12.9291C6.50633 12.8783 6.61693 12.8039 6.7099 12.7102C6.80363 12.6172 6.87802 12.5066 6.92879 12.3848C6.97956 12.2629 7.00569 12.1322 7.00569 12.0002C7.00569 11.8682 6.97956 11.7375 6.92879 11.6156C6.87802 11.4937 6.80363 11.3831 6.7099 11.2902L3.4099 8.00019H10.9999C11.2651 8.00019 11.5195 7.89483 11.707 7.70729C11.8945 7.51976 11.9999 7.2654 11.9999 7.00019C11.9999 6.73497 11.8945 6.48062 11.707 6.29308C11.5195 6.10554 11.2651 6.00019 10.9999 6.00019Z" fill="#1F271B"></path>
  </symbol>
  <symbol fill="none" xmlns="http://www.w3.org/2000/svg" viewBox="0 0 14 8" id="arrow-down">
    <path d="M1 0.999999L7 7L13 1" stroke="#19647E" stroke-width="2" stroke-linecap="round" stroke-linejoin="round"></path>
  </symbol>
  <symbol fill="none" xmlns="http://www.w3.org/2000/svg" viewBox="0 0 8 14" id="arrow-right">
    <path d="M1 13L7 7L1 1" stroke="#19647E" stroke-width="2" stroke-linecap="round" stroke-linejoin="round"></path>
  </symbol>
  <symbol fill="none" xmlns="http://www.w3.org/2000/svg" viewBox="0 0 24 24" id="burger">
    <rect x="5" y="5" width="14" height="2" rx="1" fill="#19647E"></rect>
    <rect x="5" y="11" width="14" height="2" rx="1" fill="#19647E"></rect>
    <rect x="5" y="17" width="14" height="2" rx="1" fill="#19647E"></rect>
  </symbol>
  <symbol fill="none" xmlns="http://www.w3.org/2000/svg" viewBox="0 0 18 18" id="comment-icon">
    <path fill-rule="evenodd" clip-rule="evenodd" d="M3.75 3C3.55109 3 3.36032 3.07902 3.21967 3.21967C3.07902 3.36032 3 3.55109 3 3.75V13.9393L4.71967 12.2197C4.86032 12.079 5.05109 12 5.25 12H14.25C14.4489 12 14.6397 11.921 14.7803 11.7803C14.921 11.6397 15 11.4489 15 11.25V3.75C15 3.55109 14.921 3.36032 14.7803 3.21967C14.6397 3.07902 14.4489 3 14.25 3H3.75ZM2.15901 2.15901C2.58097 1.73705 3.15326 1.5 3.75 1.5H14.25C14.8467 1.5 15.419 1.73705 15.841 2.15901C16.2629 2.58097 16.5 3.15326 16.5 3.75V11.25C16.5 11.8467 16.2629 12.419 15.841 12.841C15.419 13.2629 14.8467 13.5 14.25 13.5H5.56066L2.78033 16.2803C2.56583 16.4948 2.24324 16.559 1.96299 16.4429C1.68273 16.3268 1.5 16.0533 1.5 15.75V3.75C1.5 3.15326 1.73705 2.58097 2.15901 2.15901Z" fill="#717179"></path>
    <path d="M9.60989 8.47072H8.39011V4.5H9.60989V8.47072ZM8.46429 10.2716C8.32143 10.1135 8.25 9.92313 8.25 9.70059C8.25 9.47804 8.32143 9.29063 8.46429 9.13836C8.61264 8.98023 8.79121 8.90117 9 8.90117C9.20879 8.90117 9.38462 8.98023 9.52747 9.13836C9.67582 9.29063 9.75 9.47804 9.75 9.70059C9.75 9.92313 9.67582 10.1135 9.52747 10.2716C9.38462 10.4239 9.20879 10.5 9 10.5C8.79121 10.5 8.61264 10.4239 8.46429 10.2716Z" fill="#717179"></path>
  </symbol>
  <symbol fill="none" xmlns="http://www.w3.org/2000/svg" viewBox="0 0 24 24" id="icon-login">
    <path d="M20 21V19C20 17.9391 19.5786 16.9217 18.8284 16.1716C18.0783 15.4214 17.0609 15 16 15H8C6.93913 15 5.92172 15.4214 5.17157 16.1716C4.42143 16.9217 4 17.9391 4 19V21" stroke="#1F271B" stroke-width="2" stroke-linecap="round" stroke-linejoin="round"></path>
    <path d="M12 11C14.2091 11 16 9.20914 16 7C16 4.79086 14.2091 3 12 3C9.79086 3 8 4.79086 8 7C8 9.20914 9.79086 11 12 11Z" stroke="#1F271B" stroke-width="2" stroke-linecap="round" stroke-linejoin="round"></path>
  </symbol>
  <symbol fill="none" xmlns="http://www.w3.org/2000/svg" viewBox="0 0 24 24" id="minus">
    <g opacity="0.2">
      <path d="M21 2H3C2.73478 2 2.48043 2.10536 2.29289 2.29289C2.10536 2.48043 2 2.73478 2 3V21C2 21.2652 2.10536 21.5196 2.29289 21.7071C2.48043 21.8946 2.73478 22 3 22H21C21.2652 22 21.5196 21.8946 21.7071 21.7071C21.8946 21.5196 22 21.2652 22 21V3C22 2.73478 21.8946 2.48043 21.7071 2.29289C21.5196 2.10536 21.2652 2 21 2ZM20 20H4V4H20V20Z" fill="#19647E"></path>
      <rect x="17" y="11" width="2" height="10" rx="1" transform="rotate(90 17 11)" fill="#28AFB0"></rect>
    </g>
  </symbol>
  <symbol fill="none" xmlns="http://www.w3.org/2000/svg" viewBox="0 0 24 24" id="plus">
    <path d="M21 2H3C2.73478 2 2.48043 2.10536 2.29289 2.29289C2.10536 2.48043 2 2.73478 2 3V21C2 21.2652 2.10536 21.5196 2.29289 21.7071C2.48043 21.8946 2.73478 22 3 22H21C21.2652 22 21.5196 21.8946 21.7071 21.7071C21.8946 21.5196 22 21.2652 22 21V3C22 2.73478 21.8946 2.48043 21.7071 2.29289C21.5196 2.10536 21.2652 2 21 2ZM20 20H4V4H20V20Z" fill="#19647E"></path>
    <path fill-rule="evenodd" clip-rule="evenodd" d="M12 7C11.4477 7 11 7.44772 11 8V11L8 11C7.44772 11 7 11.4477 7 12C7 12.5523 7.44772 13 8 13H11V16C11 16.5523 11.4477 17 12 17C12.5523 17 13 16.5523 13 16V13H16C16.5523 13 17 12.5523 17 12C17 11.4477 16.5523 11 16 11L13 11V8C13 7.44772 12.5523 7 12 7Z" fill="#28AFB0"></path>
  </symbol>
  <symbol viewPort="0 0 23 17" xmlns="http://www.w3.org/2000/svg" id="cross">
    <line x1="1" y1="11" 
          x2="11" y2="1" 
          stroke="black" 
          stroke-width="2"/>
    <line x1="1" y1="1" 
          x2="11" y2="11" 
          stroke="black" 
          stroke-width="2"/>
  </symbol>
  <symbol xmlns="http://www.w3.org/2000/svg" viewBox="0 0 23 17"  role="img" xmlns:xlink="http://www.w3.org/1999/xlink" id="icon-cross">
  <path data-name="layer1"
  fill="none" stroke-miterlimit="10" stroke-width="2" d="M41.999 20.002l-22 22m22 0L20 20"
  stroke-linejoin="round" stroke-linecap="round"></path>
</symbol>
</svg>